<?xml version="1.0" encoding="UTF-8"?>
<!DOCTYPE svg PUBLIC "-//W3C//DTD SVG 1.1//EN" "http://www.w3.org/Graphics/SVG/1.1/DTD/svg11.dtd">
<!-- Creator: CorelDRAW -->
<svg xmlns="http://www.w3.org/2000/svg" xml:space="preserve" width="13px" height="16px" version="1.1" style="shape-rendering:geometricPrecision; text-rendering:geometricPrecision; image-rendering:optimizeQuality; fill-rule:evenodd; clip-rule:evenodd"
viewBox="0 0 5.38 6.56"
 xmlns:xlink="http://www.w3.org/1999/xlink"
 xmlns:xodm="http://www.corel.com/coreldraw/odm/2003">
 <defs>
  <style type="text/css">
   <![CDATA[
    .fil0 {fill:#004085}
   ]]>
  </style>
 </defs>
 <g id="Camada_x0020_1">
  <metadata id="CorelCorpID_0Corel-Layer"/>
  <path class="fil0" d="M3.7 1.38c0.98,0.4 1.68,1.37 1.68,2.49 0,1.46 -1.16,2.64 -2.6,2.69l0 -0.36 0 -6.2 0.76 0.91 0 5.13c0.06,-0.02 0.13,-0.05 0.19,-0.08l0 -3.57 0.6 0.67 0 2.47c0.42,-0.42 0.69,-1.01 0.69,-1.66 0,-0.92 -0.54,-1.72 -1.32,-2.1l0 -0.39zm-1.1 5.18c-1.44,-0.05 -2.6,-1.23 -2.6,-2.69 0,-1.11 0.68,-2.06 1.64,-2.47l0 0.39c-0.76,0.39 -1.28,1.17 -1.28,2.08 0,0.65 0.26,1.24 0.69,1.66l0 -2.47 0.6 -0.67 0 3.57c0.06,0.03 0.12,0.06 0.19,0.08l0 -5.13 0.76 -0.91 0 6.2 0 0.36z"/>
 </g>
</svg>
