<?xml version="1.0" encoding="UTF-8"?>
<!DOCTYPE svg PUBLIC "-//W3C//DTD SVG 1.1//EN" "http://www.w3.org/Graphics/SVG/1.1/DTD/svg11.dtd">
<!-- Creator: CorelDRAW -->
<svg xmlns="http://www.w3.org/2000/svg" xml:space="preserve" width="41px" height="50px" version="1.1" style="shape-rendering:geometricPrecision; text-rendering:geometricPrecision; image-rendering:optimizeQuality; fill-rule:evenodd; clip-rule:evenodd"
viewBox="0 0 41 49.99"
 xmlns:xlink="http://www.w3.org/1999/xlink"
 xmlns:xodm="http://www.corel.com/coreldraw/odm/2003">
 <defs>
  <style type="text/css">
   <![CDATA[
    .fil0 {fill:white}
   ]]>
  </style>
 </defs>
 <g id="Camada_x0020_1">
  <metadata id="CorelCorpID_0Corel-Layer"/>
  <path class="fil0" d="M28.2 10.52c7.46,3.04 12.8,10.44 12.8,18.97 0,11.13 -8.84,20.12 -19.81,20.5l0 -2.74 0 -47.25 5.79 6.94 0 39.09c0.46,-0.15 0.99,-0.38 1.45,-0.61l0 -27.21 4.57 5.11 0 18.82c3.2,-3.2 5.26,-7.69 5.26,-12.65 0,-7.01 -4.12,-13.1 -10.06,-16l0 -2.97zm-8.39 39.47c-10.97,-0.38 -19.81,-9.37 -19.81,-20.5 0,-8.46 5.18,-15.7 12.5,-18.82l0 2.97c-5.79,2.97 -9.76,8.92 -9.76,15.85 0,4.96 1.99,9.45 5.26,12.65l0 -18.82 4.57 -5.11 0 27.21c0.46,0.23 0.92,0.46 1.45,0.61l0 -39.09 5.79 -6.94 0 47.25 0 2.74z"/>
 </g>
</svg>
