<?xml version="1.0" encoding="UTF-8"?>
<!DOCTYPE svg PUBLIC "-//W3C//DTD SVG 1.1//EN" "http://www.w3.org/Graphics/SVG/1.1/DTD/svg11.dtd">
<!-- Creator: CorelDRAW -->
<svg xmlns="http://www.w3.org/2000/svg" xml:space="preserve" width="16px" height="16px" version="1.1" style="shape-rendering:geometricPrecision; text-rendering:geometricPrecision; image-rendering:optimizeQuality; fill-rule:evenodd; clip-rule:evenodd"
viewBox="0 0 16 15.93"
 xmlns:xlink="http://www.w3.org/1999/xlink"
 xmlns:xodm="http://www.corel.com/coreldraw/odm/2003">
 <defs>
  <style type="text/css">
   <![CDATA[
    .fil0 {fill:#86A7DD}
   ]]>
  </style>
 </defs>
 <g id="Camada_x0020_1">
  <metadata id="CorelCorpID_0Corel-Layer"/>
  <path class="fil0" d="M7.89 5.75c1.43,0 2.58,1.16 2.58,2.58 0,1.42 -1.15,2.57 -2.58,2.57 -1.42,0 -2.57,-1.15 -2.57,-2.57 0,-1.42 1.15,-2.58 2.57,-2.58zm-4.93 5.66c0.17,0.64 -0.11,1.34 -0.71,1.68 -0.72,0.42 -1.64,0.17 -2.05,-0.55 -0.41,-0.72 -0.16,-1.64 0.56,-2.06 0.6,-0.34 1.34,-0.22 1.81,0.24l2.13 -1.22c0.09,0.25 0.22,0.49 0.36,0.7l-2.1 1.21zm7.32 1.52c0.65,-0.09 1.32,0.25 1.59,0.89 0.34,0.76 -0.01,1.65 -0.77,1.98 -0.76,0.33 -1.65,-0.01 -1.98,-0.78 -0.28,-0.63 -0.08,-1.36 0.43,-1.77l-0.72 -1.66c0.26,-0.07 0.5,-0.17 0.73,-0.3l0.72 1.64zm2.74 -5.39c0.13,-0.65 0.68,-1.16 1.37,-1.21 0.83,-0.06 1.55,0.57 1.6,1.39 0.06,0.83 -0.56,1.55 -1.39,1.61 -0.69,0.05 -1.31,-0.38 -1.53,-1l-1.78 0.12c0,-0.04 0,-0.08 0,-0.12 0,-0.23 -0.02,-0.45 -0.06,-0.66l1.79 -0.13zm-3.35 -4.83c-0.53,-0.39 -0.76,-1.1 -0.51,-1.75 0.31,-0.78 1.18,-1.16 1.95,-0.86 0.77,0.3 1.16,1.18 0.86,1.95 -0.25,0.65 -0.91,1.02 -1.56,0.95l-0.91 2.33c-0.23,-0.12 -0.48,-0.22 -0.74,-0.29l0.91 -2.33zm-5.9 3.28c-0.49,0.45 -1.24,0.53 -1.82,0.16 -0.7,-0.45 -0.9,-1.38 -0.46,-2.08 0.45,-0.7 1.38,-0.9 2.08,-0.46 0.59,0.38 0.82,1.09 0.63,1.72l1.15 0.74c-0.17,0.2 -0.32,0.42 -0.45,0.65l-1.13 -0.73z"/>
 </g>
</svg>
