<?xml version="1.0" encoding="UTF-8"?>
<!DOCTYPE svg PUBLIC "-//W3C//DTD SVG 1.1//EN" "http://www.w3.org/Graphics/SVG/1.1/DTD/svg11.dtd">
<!-- Creator: CorelDRAW -->
<svg xmlns="http://www.w3.org/2000/svg" xml:space="preserve" width="13px" height="16px" version="1.1" style="shape-rendering:geometricPrecision; text-rendering:geometricPrecision; image-rendering:optimizeQuality; fill-rule:evenodd; clip-rule:evenodd"
viewBox="0 0 2.19 2.77"
 xmlns:xlink="http://www.w3.org/1999/xlink"
 xmlns:xodm="http://www.corel.com/coreldraw/odm/2003">
 <defs>
  <style type="text/css">
   <![CDATA[
    .fil2 {fill:#00698E}
    .fil0 {fill:#029ED5}
    .fil1 {fill:#A9E3EB}
    .fil3 {fill:#BACACA}
    .fil4 {fill:white}
   ]]>
  </style>
 </defs>
 <g id="Camada_x0020_1">
  <metadata id="CorelCorpID_0Corel-Layer"/>
  <g id="_1984185725024">
   <path class="fil0" d="M0.82 2.53c0.07,0.07 0.22,0.24 0.29,0.24 0.08,0.01 0.75,-0.76 0.93,-1.1 0.51,-1.01 -0.34,-1.89 -1.27,-1.62 -0.46,0.13 -0.79,0.62 -0.77,1.06 0.04,0.66 0.81,1.42 0.82,1.42z"/>
   <path class="fil1" d="M0.13 0.79c0.01,0 0.07,-0.15 0.07,-0.15 0.03,-0.02 0.11,-0.27 0.51,-0.46 0.15,-0.08 -0.13,-0.02 -0.22,0.05 -0.14,0.1 -0.4,0.35 -0.36,0.56z"/>
   <path class="fil2" d="M1.1 0.16c0.51,0 0.93,0.41 0.93,0.92 0,0.51 -0.42,0.93 -0.93,0.93 -0.51,0 -0.93,-0.42 -0.93,-0.93 0,-0.51 0.42,-0.92 0.93,-0.92z"/>
   <path class="fil3" d="M1.1 0.23c0.47,0 0.86,0.38 0.86,0.85 0,0.47 -0.39,0.86 -0.86,0.86 -0.47,0 -0.85,-0.39 -0.85,-0.86 0,-0.47 0.38,-0.85 0.85,-0.85z"/>
   <path class="fil4" d="M1.1 0.24c0.46,0 0.84,0.38 0.84,0.84 0,0.47 -0.38,0.84 -0.84,0.84 -0.46,0 -0.84,-0.37 -0.84,-0.84 0,-0.46 0.38,-0.84 0.84,-0.84z"/>
   <path class="fil2" d="M0.3 0.92l0 0.02c0.01,0 0.03,-0.01 0.03,0.01 0.01,0.01 -0.01,0.06 0.02,0.06 0,0 0.04,0 0.04,0 0.01,-0.01 0.01,-0.02 0.04,-0.03 0,0 0.02,0 0.03,0l0.02 0.02c0,0 0.01,0 0.02,0 0.04,-0.01 0.02,0 0.04,0.01 0,0.01 0,0.01 0.01,0.02 0.01,0.01 0.01,0.01 0.03,0.01 0.04,0.01 0.04,0.04 0.05,0.06 0,0.01 0.02,0.01 0.03,0.02 0.02,0 0.02,0.01 0.03,0.02 0.02,0 0.03,-0.01 0.04,0.01 0.03,0.02 0.02,0 0.03,0.02 0.01,0.02 0,0.03 -0.01,0.05 -0.03,0.03 -0.02,0.04 -0.02,0.06 0,0.02 0,0.01 0,0.02 -0.01,0.04 0,0.05 -0.04,0.05 -0.02,0.01 -0.04,0.02 -0.03,0.04 0.01,0.03 -0.02,0.03 -0.03,0.06 0,0.01 0,0.01 0,0.02l-0.04 0c0,0.03 0.01,0 0.01,0.04 0,0 0,0 0,0l-0.01 0c0,0 0,0 0,0l-0.02 0.01 0 0.02 -0.02 0.01c0.01,0 0.01,0 0.01,0.02 -0.01,0.02 -0.01,0.01 -0.01,0.03 0,0 0,0 0.01,0.01 0,0.02 -0.01,0.03 0,0.05 0.02,0.02 0.03,0.01 0.04,0.03 -0.02,0.01 -0.04,0 -0.05,-0.01 -0.05,-0.03 -0.05,-0.05 -0.06,-0.08 -0.01,-0.02 0,-0.01 0,-0.03 0,-0.02 0,-0.01 -0.01,-0.02 -0.01,-0.04 -0.01,-0.04 -0.01,-0.08 0,-0.01 -0.01,-0.04 -0.01,-0.07 0,-0.02 0,-0.07 0,-0.08 -0.01,-0.04 -0.05,-0.03 -0.06,-0.07 -0.01,-0.02 -0.05,-0.08 -0.05,-0.08 0,-0.01 0,-0.06 0.02,-0.08 0.02,-0.02 0.01,-0.03 0.01,-0.06 -0.01,-0.01 0,-0.01 -0.02,-0.01l0 0.01c-0.01,0 -0.01,0 -0.02,0 -0.01,-0.01 -0.03,-0.03 -0.03,-0.04 -0.01,-0.02 -0.01,-0.02 -0.03,-0.02 -0.01,0.02 -0.01,0.19 0,0.21 0.01,0.1 0.03,0.17 0.07,0.26 0.02,0.04 0.06,0.1 0.08,0.13 0.04,0.05 0.07,0.08 0.11,0.12 0.07,0.07 0.18,0.14 0.27,0.17l0.09 0.03c0.07,0.02 0.13,0.02 0.2,0.02 0.08,0 0.17,-0.01 0.24,-0.03 0.02,-0.01 0.03,-0.01 0.04,-0.02 0.03,-0.01 0.06,-0.02 0.08,-0.03 0.04,-0.01 0.03,-0.01 0.07,-0.04 0.03,-0.01 0.05,-0.03 0.07,-0.04 0.06,-0.05 0.08,-0.07 0.13,-0.12 0.03,-0.03 0.02,-0.03 0.04,-0.05 0.06,-0.07 0.11,-0.2 0.14,-0.29l0.02 -0.1c0,-0.03 -0.01,-0.03 -0.02,-0.04 -0.03,-0.04 -0.03,-0.06 -0.06,-0.08 -0.01,-0.02 0,-0.03 0.02,-0.01 0.01,0.01 0,0.01 0.02,0.01 0,-0.01 -0.01,-0.03 -0.01,-0.04 -0.01,-0.01 -0.01,0 -0.01,-0.03 0,-0.02 -0.01,-0.05 -0.02,-0.07 -0.02,0 0,0.01 -0.02,0.01 -0.01,-0.03 -0.01,-0.03 -0.03,-0.06 -0.01,-0.01 -0.01,-0.01 -0.02,0l-0.02 0 -0.03 0.03c0,0.01 -0.02,0.03 -0.03,0.03 -0.01,0.02 0.02,0.08 -0.02,0.07 -0.01,0 -0.01,-0.01 -0.01,-0.01 -0.01,-0.03 -0.03,-0.06 -0.04,-0.09 0,-0.04 0.01,-0.02 -0.02,-0.02 -0.02,-0.04 -0.02,-0.02 -0.04,-0.05 -0.02,0 -0.03,0 -0.05,0 -0.03,0 -0.02,-0.02 -0.04,-0.02 -0.02,0 -0.03,0.01 -0.04,-0.01 -0.01,-0.01 -0.01,-0.01 -0.01,-0.02 -0.02,-0.01 -0.02,0 -0.02,0 -0.02,0.01 0.01,0.02 0.03,0.06 0.02,0 0.02,-0.01 0.04,-0.01 0.01,0.01 0,0.01 0.01,0.01 0.01,0.01 0.01,0.01 0.02,0.01 0,0.02 0,0.03 -0.02,0.05 -0.01,0.01 -0.02,0.02 -0.03,0.02 -0.01,0.01 -0.01,0.01 -0.02,0.02 -0.02,0.01 -0.04,0.02 -0.06,0.02 -0.01,0.03 0,0.02 0.03,0.02 0.02,-0.01 0.04,-0.02 0.03,0.02 0,0.01 -0.01,0.01 -0.01,0.02 -0.01,0.04 -0.03,0.04 -0.05,0.07 -0.01,0.01 -0.02,0.03 -0.03,0.04 -0.02,0.02 -0.01,0.04 0,0.07 0,0.01 0,0.02 0,0.03 0,0.02 0,0.03 -0.01,0.05 -0.01,0 -0.01,0 -0.01,0 -0.04,0.03 -0.03,0.02 -0.03,0.08 -0.01,0 -0.02,0 -0.02,0.01 -0.01,0.03 0.01,0.01 -0.03,0.06 -0.01,0.01 -0.02,0.02 -0.04,0.03 -0.03,0 -0.04,0.01 -0.06,0 -0.01,-0.02 0,-0.03 -0.02,-0.06 -0.02,-0.03 -0.01,-0.04 -0.01,-0.07l-0.02 -0.02c0,-0.02 -0.01,-0.02 -0.01,-0.03 0.01,-0.04 0.02,-0.05 0.02,-0.07 -0.01,-0.08 -0.05,-0.08 -0.04,-0.12 0.01,-0.06 -0.01,-0.03 -0.03,-0.04 -0.01,-0.01 0,-0.02 -0.02,-0.02 -0.03,0 -0.03,0.02 -0.07,0.02 -0.01,-0.01 -0.03,0 -0.03,0 -0.03,-0.01 -0.05,-0.05 -0.06,-0.06 0,-0.01 -0.02,-0.02 -0.02,-0.03 -0.01,-0.02 0.01,-0.04 0,-0.06 0,-0.04 -0.01,-0.03 0.02,-0.07 0.02,-0.02 0.01,-0.02 0.03,-0.04 0.03,-0.01 0.01,-0.03 0.03,-0.05 0.01,0 0.02,-0.01 0.02,-0.02 0,-0.02 -0.01,-0.02 -0.02,-0.02 -0.01,-0.01 0,-0.04 0,-0.06 0.02,-0.01 0.06,0.01 0.07,-0.02 0,-0.02 -0.02,-0.02 -0.03,-0.04l0.02 0c0.01,0 0.01,-0.01 0.02,-0.01 0.01,0 0.03,-0.03 0.04,-0.03 0.01,-0.01 0.02,-0.01 0.03,-0.01l0 -0.03c0.02,0 0.01,0.01 0.03,0 0,-0.01 -0.01,-0.02 -0.02,-0.02 -0.02,0 -0.01,0 -0.03,0 -0.01,-0.01 -0.01,-0.01 -0.01,-0.03 0.08,-0.04 0.05,-0.06 0.1,-0.08 0.04,-0.01 0.07,0 0.11,0.01 0.02,0.01 0.02,0 0.03,0.02 -0.01,0 0,0 -0.01,0l-0.03 0.01c0,0.04 0.05,0 0.05,0 0.02,-0.01 0.01,0 0.02,-0.02 0.02,0.01 0.01,0.01 0.03,0 0.02,-0.01 0.02,0 0.04,0 0.02,-0.01 0.02,-0.01 0.04,-0.01 0.02,0 0.02,0.01 0.04,0 -0.01,-0.01 -0.01,-0.01 -0.01,-0.02 0,-0.02 0.03,0.01 0.06,-0.01 -0.01,-0.02 -0.03,-0.02 -0.05,-0.03 -0.02,-0.01 -0.04,-0.01 -0.06,-0.02 -0.13,-0.06 -0.27,-0.06 -0.42,-0.05l0.01 0.02c0,0 0.01,0 0,0.01 -0.02,0.02 -0.06,-0.02 -0.08,-0.01 0,0.02 0.03,0.02 0.04,0.02 0.01,0 0.01,0 0.02,0.01 0.02,0 0.02,-0.01 0.03,0 0.01,0.01 0.02,0.01 0.02,0.02 -0.02,0.01 -0.03,0 -0.04,0.02l-0.02 0.02c0.01,0.01 0.01,-0.01 0.01,0.01l-0.02 0.01c-0.01,0.02 0,0.03 -0.01,0.05 -0.02,0.02 -0.01,0.02 -0.02,0.03 -0.03,0 -0.02,-0.02 -0.04,-0.02 0,0.02 0,0.01 0,0.02l0.01 0c0,0 0,0.01 0,0.01 0,0.01 -0.01,0.01 -0.02,0.01 -0.01,0.01 -0.01,0.01 -0.02,0.01 -0.02,0.01 -0.03,0.01 -0.05,0.02 -0.01,0 -0.02,0 -0.02,0.01l-0.02 0.02c0,0.01 -0.01,0.02 -0.02,0.04 -0.01,-0.01 -0.01,-0.01 -0.02,-0.02 -0.03,-0.01 -0.02,-0.03 -0.02,-0.06 0,-0.02 -0.02,-0.03 0.01,-0.05 0.01,-0.01 0,0 0.01,-0.01 0,-0.01 0,-0.01 -0.01,-0.02 -0.01,-0.02 -0.01,-0.04 -0.01,-0.07 -0.01,0 -0.02,0 -0.03,0.01 -0.01,0.01 -0.01,0.01 -0.01,0.03 0.01,0 0.03,0.01 0.02,0.02 -0.01,0.01 -0.02,0 -0.04,0 0.01,0.02 0.01,0 0.01,0.02 -0.01,0.01 -0.03,0.01 -0.04,0.01 0,0 -0.04,-0.04 -0.04,0 0.02,0.02 0.02,0 0.03,0.04 0.02,0 0.01,-0.01 0.03,-0.01 0,0.04 0,0.03 0.02,0.05 0.02,0.01 0.01,0.02 0.01,0.04 0,0.01 0,0.01 0,0.01 0.01,0.01 0.01,0.02 0.01,0.03 -0.01,0 0,0 -0.01,0 -0.01,0 -0.03,0 -0.03,-0.01 -0.01,-0.01 0.01,-0.02 0.01,-0.03 -0.02,0 -0.01,0 -0.03,0.01 -0.02,0 -0.03,-0.01 -0.04,0 0,0.01 0,0 0,0 0,0.02 0,0.02 0,0.04 0.01,0.01 0.01,0.01 0,0.01 -0.01,0.01 -0.01,0 -0.02,0 -0.05,0.01 -0.03,0.02 -0.05,0.04 -0.01,0 -0.02,0.01 -0.03,0.01 -0.01,0.01 -0.01,0.01 -0.01,0.02 -0.01,0 -0.01,0 -0.01,0.01 -0.01,0.01 0,0.02 -0.02,0.03 -0.04,0.02 -0.05,0.02 -0.05,0.08 -0.03,0 -0.01,-0.01 -0.02,-0.03l-0.03 -0.01c-0.01,0.02 -0.02,0.05 -0.03,0.07 -0.01,0.03 0,0.02 0.01,0.04 0,0.01 -0.01,0.02 -0.01,0.03z"/>
   <path class="fil2" d="M1.14 0.67l-0.01 0.03c-0.01,-0.01 0,-0.02 -0.03,-0.03 -0.02,-0.02 -0.01,-0.02 -0.03,-0.03 -0.02,0 0,0.01 -0.04,0.01 -0.01,0.02 -0.03,0.02 -0.04,0.04 0,0.02 -0.01,0.02 -0.02,0.03 -0.02,0 -0.01,-0.01 -0.02,0.01 0.01,0 0.01,0.01 0.03,0 0.01,0 0.01,-0.01 0.03,-0.01l0.07 -0.01 0 0.04c0.02,0.01 0.03,0 0.04,0.01 0.01,0.02 0.01,0.02 0.04,0.02l0 -0.02c0.03,-0.01 0.07,0.03 0.12,0.01 0.01,0 0,0 0.01,-0.02 0,0 0.01,-0.01 0.01,-0.01 0,-0.01 0,-0.02 -0.02,-0.02 0,0 0,0 0,0 -0.02,0 -0.01,0 -0.02,0 -0.03,-0.01 -0.03,0.01 -0.05,-0.03 -0.01,-0.01 0,-0.02 -0.02,-0.01 0,0 0,0 0,0 0,0.02 0,0.02 -0.01,0.03 -0.01,0 0,0 -0.01,-0.01l-0.02 -0.04c-0.01,-0.01 -0.02,-0.01 -0.03,-0.02 -0.01,-0.01 -0.01,-0.02 -0.02,-0.02 -0.01,0.03 0.02,0.04 0.04,0.05z"/>
  </g>
 </g>
</svg>
