<?xml version="1.0" encoding="UTF-8"?>
<!DOCTYPE svg PUBLIC "-//W3C//DTD SVG 1.1//EN" "http://www.w3.org/Graphics/SVG/1.1/DTD/svg11.dtd">
<!-- Creator: CorelDRAW -->
<svg xmlns="http://www.w3.org/2000/svg" xml:space="preserve" width="778px" height="185px" version="1.1" style="shape-rendering:geometricPrecision; text-rendering:geometricPrecision; image-rendering:optimizeQuality; fill-rule:evenodd; clip-rule:evenodd"
viewBox="0 0 778.03 185.32"
 xmlns:xlink="http://www.w3.org/1999/xlink"
 xmlns:xodm="http://www.corel.com/coreldraw/odm/2003">
 <defs>
  <style type="text/css">
   <![CDATA[
    .fil2 {fill:#00698E}
    .fil0 {fill:#029ED5}
    .fil6 {fill:#22BAE1}
    .fil1 {fill:#A9E3EB}
    .fil3 {fill:#BACACA}
    .fil4 {fill:white}
    .fil7 {fill:#22BAE1;fill-rule:nonzero}
    .fil5 {fill:#22BAE1;fill-rule:nonzero}
   ]]>
  </style>
 </defs>
 <g id="Camada_x0020_1">
  <metadata id="CorelCorpID_0Corel-Layer"/>
  <g id="_2288712760320">
   <path class="fil0" d="M686.18 168.9c5.09,4.69 14.71,15.98 19.43,16.42 5.79,0.53 50.32,-50.9 62.02,-73.8 34.4,-67.34 -22.42,-126.01 -84.28,-108.34 -30.85,8.75 -53.16,41.69 -51.65,70.99 2.28,44.25 53.79,94.74 54.48,94.73z"/>
   <path class="fil1" d="M640.48 53.09c0.62,-0.19 4.51,-10.17 4.51,-10.45 2.15,-1.12 7.56,-17.82 33.81,-30.73 10.32,-5.1 -8.59,-0.98 -14.12,3.23 -9.43,7.17 -27.29,23.36 -24.2,37.95z"/>
   <path class="fil2" d="M705.14 10.44c34.18,0 61.89,27.71 61.89,61.89 0,34.18 -27.71,61.89 -61.89,61.89 -34.17,0 -61.88,-27.71 -61.88,-61.89 0,-34.18 27.71,-61.89 61.88,-61.89z"/>
   <path class="fil3" d="M705.14 15.2c31.56,0 57.13,25.58 57.13,57.13 0,31.55 -25.57,57.13 -57.13,57.13 -31.55,0 -57.12,-25.58 -57.12,-57.13 0,-31.55 25.57,-57.13 57.12,-57.13z"/>
   <path class="fil4" d="M705.14 16.16c31.03,0 56.18,25.15 56.18,56.17 0,31.03 -25.15,56.18 -56.18,56.18 -31.02,0 -56.17,-25.15 -56.17,-56.18 0,-31.02 25.15,-56.17 56.17,-56.17z"/>
   <path class="fil2" d="M651.59 61.38l-0.09 1.09c0.96,0.07 2.14,-0.24 2.5,0.7 0.34,0.88 -1.31,4 1.16,4.31 0.07,0.01 2.53,-0.02 2.74,-0.04 0.63,-0.91 0.63,-1.53 2.12,-1.81 0.4,-0.08 1.62,-0.1 2.01,-0.03l1.33 0.9c0.66,0.01 0.7,0.17 1.64,0.12 2.61,-0.16 1.37,-0.1 2.41,1.17 0.24,0.29 0.6,0.46 0.92,0.74 0.9,0.78 0.53,1.06 2.12,1.25 2.72,0.32 2.73,2.57 3.18,3.56 0.38,0.84 1.13,1.02 2.12,1.38 1.06,0.38 1.01,0.87 2.18,1.17 1.32,0.35 1.67,-0.07 2.6,0.78 1.79,1.64 1.37,0.39 1.94,1.45 0.59,1.21 0.14,2.32 -0.48,3.13 -1.97,2.53 -1.35,2.88 -1.38,4.22 -0.02,1.13 -0.23,0.81 -0.4,1.53 -0.59,2.4 -0.12,3.04 -2.19,3.42 -1.3,0.23 -2.74,1.3 -2.39,2.69 0.43,1.66 -0.93,1.58 -1.61,3.83 -0.21,0.69 -0.28,0.74 -0.59,1.35l-2.38 0.1c-0.02,2.01 0.98,0.12 0.73,2.35 -0.05,0.04 -0.12,0.07 -0.16,0.09l-0.32 0.18c-0.05,0.02 -0.1,0.05 -0.15,0.07l-1.6 0.64 -0.13 1.3 -1.16 0.23c0.62,0.63 0.75,0.26 0.58,1.67 -0.18,1.49 -0.42,0.38 -0.71,1.68 0.37,0.54 0.29,0.37 0.95,0.75 0.03,1.55 -0.85,2.28 0.13,3.64 0.88,1.21 2.05,0.77 2.24,1.89 -0.96,0.77 -2.25,-0.09 -3.23,-0.69 -3.04,-1.85 -3.13,-2.96 -3.93,-5.32 -0.42,-1.23 0.12,-0.79 0.14,-1.97 0.01,-1.08 -0.35,-0.83 -1.02,-1.23 -0.21,-2.55 -0.53,-2.69 -0.28,-5.27 0.09,-1 -0.56,-3.19 -0.55,-4.99 0,-1.38 0.08,-4.44 -0.17,-5.54 -0.5,-2.28 -3.38,-1.91 -4.26,-4.4 -0.46,-1.29 -2.98,-5.45 -3.02,-5.6 -0.05,-0.24 -0.12,-3.48 0.89,-4.73 1.46,-1.82 1.22,-2.03 0.95,-4.53 -0.56,-0.39 -0.28,-0.37 -0.98,-0.61l-0.6 0.55c-0.51,0.26 -0.42,0.16 -0.85,-0.04 -0.85,-0.38 -2.14,-1.67 -2.47,-2.55 -0.35,-0.89 -0.4,-1.12 -1.54,-1.13 -0.92,1.34 -0.59,12.35 -0.35,13.97 0.94,6.63 2.24,11.09 4.97,17.15 1.31,2.92 3.72,6.7 5.47,9.16 2.25,3.14 4.34,5.39 6.98,7.9 4.71,4.45 12.18,8.97 18.26,11.28l5.88 1.73c4.57,1.28 8.44,1.5 13.36,1.53 5.45,0.05 11.08,-0.37 16.11,-2.19 0.97,-0.35 2.07,-0.55 2.92,-0.86 1.98,-0.73 3.46,-1.6 5.28,-2.3 2.2,-0.85 1.87,-0.89 4.42,-2.42 1.73,-1.04 3.05,-1.94 4.55,-3.02 4.33,-3.11 5.54,-4.74 8.65,-7.9 2.1,-2.15 1.48,-1.92 2.54,-3.12 4.24,-4.78 7.93,-13.57 9.76,-19.76l1.04 -6.6c-0.01,-1.61 -0.36,-1.62 -1.08,-2.55 -2.24,-2.93 -1.88,-3.77 -3.85,-5.62 -1.13,-1.06 -0.03,-1.57 0.89,-0.66 0.77,0.78 0.36,0.81 1.58,1.02 -0.06,-0.64 -0.4,-2.03 -0.67,-2.52 -0.6,-1.11 -0.92,-0.1 -0.7,-2.07 0.18,-1.53 -0.57,-3.58 -1.29,-4.73 -1.26,0.14 -0.04,0.36 -1.43,0.35 -0.27,-2.06 -0.48,-2.02 -1.96,-3.7 -0.58,-0.66 -0.32,-0.68 -1.48,-0.32l-1.36 0.16 -1.68 2.31c-0.4,0.57 -1.42,1.48 -1.98,2 -0.52,1.02 0.87,4.86 -1.81,4.76 -0.21,-0.46 -0.16,-0.72 -0.37,-1.31 -0.67,-1.94 -1.97,-3.85 -2.4,-5.91 -0.47,-2.23 0.16,-1.16 -1.78,-1.42 -1.44,-2.34 -0.99,-1.37 -2.21,-3.09 -1.44,-0.2 -2.43,0.03 -3.8,-0.04 -2.02,-0.09 -1.21,-0.93 -2.51,-1.14 -1.6,-0.27 -1.74,0.27 -2.79,-0.99 -0.47,-0.56 -0.28,-0.7 -0.76,-1.15 -0.82,-0.77 -0.99,-0.18 -1.02,-0.15 -1.17,1.05 0.75,1.39 2.15,4.27 1.29,0.11 1.31,-0.46 2.22,-0.79 0.79,0.39 0.29,0.44 1.01,0.92 0.41,0.27 0.78,0.27 1.26,0.6 0.17,1.31 -0.26,2.08 -1.1,3.05 -0.67,0.78 -1.52,1.14 -2.35,1.61 -0.49,0.28 -0.62,0.62 -1.16,0.94 -1.27,0.74 -2.75,1.67 -4.41,1.71 -0.04,1.74 0.55,1.52 2.01,1.2 1.67,-0.36 3.15,-1.09 2.36,1.26 -0.15,0.44 -0.49,0.9 -0.66,1.42 -0.86,2.56 -1.96,2.9 -3.65,4.75 -0.55,0.6 -1.39,1.94 -1.73,2.45 -1.13,1.67 -1.03,3.17 -0.32,5 0.28,0.74 0.2,1.04 0.19,1.94 -0.01,1.17 0.04,2.18 -0.88,2.94 -0.03,0.03 -0.08,0.07 -0.12,0.1 -3,2.25 -2.37,1.59 -2.45,5.34 -0.65,0.51 -0.81,0.18 -1.16,0.93 -0.86,1.87 0.69,0.56 -2.22,4.05 -0.76,0.91 -1.02,1.53 -2.66,1.58 -2.02,0.07 -2.39,0.7 -3.68,0.22 -0.62,-1.45 0.17,-1.59 -1.41,-4.02 -1.14,-1.75 -0.42,-2.63 -0.93,-4.33l-0.83 -1.87c-0.42,-0.8 -0.76,-0.89 -0.7,-1.95 0.13,-2.28 1.19,-2.81 1.05,-4.2 -0.56,-5.79 -2.98,-5.32 -2.61,-7.91 0.63,-4.49 -0.37,-2.27 -2.06,-3.21 -0.83,-0.46 -0.17,-1.17 -1.63,-1.19 -1.79,-0.01 -1.72,1.2 -4.21,1.08 -1.08,-0.06 -1.9,0.32 -2.45,0.21 -1.68,-0.33 -3.19,-3.44 -3.81,-4.13 -0.21,-0.24 -1.14,-1.21 -1.26,-1.44 -0.7,-1.4 0.39,-3.02 0.32,-4.6 -0.11,-2.6 -0.75,-1.69 0.81,-4.09 1.27,-1.97 0.61,-1.39 2.45,-2.77 1.51,-1.14 0.63,-2.16 1.86,-3.37 0.5,-0.49 1.18,-0.84 1.22,-1.71 0.06,-1.26 -0.52,-0.93 -1.36,-1.25 -0.27,-0.67 0.15,-2.77 0.19,-4.13 1.43,-0.19 3.75,0.76 4.27,-0.8 0.57,-1.75 -0.98,-1.61 -1.42,-2.81l1.13 -0.38c0.39,-0.11 0.65,-0.19 0.99,-0.3 1.12,-0.38 2.22,-1.86 3.04,-2.39 0.57,-0.37 0.98,-0.29 1.72,-0.79l-0.08 -1.73c1.3,0.14 0.83,0.49 2.01,0.33 -0.04,-0.79 -0.51,-1.3 -1.02,-1.84 -1.19,0.06 -0.7,0.47 -2.18,0.48 -0.31,-0.81 -0.41,-1.15 -0.41,-2.27 5.38,-2.9 3.02,-3.74 6.6,-5.1 2.72,-1.04 4.55,-0.07 7.16,0.7 1.17,0.34 1.65,-0.01 1.93,1.14 -0.3,0.23 -0.05,0.12 -0.53,0.25l-1.73 0.1c-0.29,2.91 2.92,0.33 3.45,0.09 0.79,-0.37 0.55,-0.08 1,-0.87 1.15,0.62 0.85,0.52 2.11,-0.22 1.1,-0.65 1.34,-0.32 2.75,-0.38 1.27,-0.05 1.48,-0.64 2.72,-0.54 0.96,0.08 1.37,0.77 2.25,0.32 -0.22,-0.61 -0.75,-0.6 -0.65,-1.43 0.2,-1.68 2.53,0.66 4.04,-0.67 -0.53,-1.23 -2.03,-1.23 -3.31,-1.9 -1.17,-0.61 -2.42,-1.1 -3.63,-1.59 -8.88,-3.62 -18.11,-3.84 -27.98,-3.27l0.26 1.17c0.03,0.11 0.45,0.06 0.02,0.55 -1.18,1.38 -3.84,-0.98 -5.54,-0.11 0.2,1.09 2.48,1 3.25,1.14 0.54,0.11 0.53,0.27 1.08,0.3 1.29,0.05 0.95,-0.63 2.2,0.47 0.7,0.61 1.27,0.53 1.26,1.47 -1.28,0.16 -2.46,-0.42 -3.08,0.72l-1.01 1.47c0.57,1.04 0.43,-0.32 0.66,1.11l-1.58 0.09c-0.26,1.4 0.37,2.39 -0.58,3.39 -1.24,1.3 -0.82,1.59 -1.45,2.49 -1.64,-0.19 -1.49,-1.69 -2.66,-1.22 0.04,0.82 -0.02,0.35 0.38,0.82l0.46 0.5c0.03,-0.04 0.08,0.1 0.11,0.15 -0.31,0.68 -0.62,0.83 -1.34,1.15 -0.5,0.23 -0.9,0.3 -1.51,0.59 -1.19,0.57 -1.85,0.76 -3.41,0.83 -0.73,0.03 -1.17,0.28 -1.46,0.78l-0.76 1.34c-0.57,0.76 -0.88,1.64 -1.56,2.6 -0.69,-0.15 -0.79,-0.64 -1.62,-1.04 -2.13,-1.03 -0.86,-2.27 -0.91,-4.16 -0.03,-1.33 -1.38,-1.78 0.12,-3.03 0.8,-0.68 0.54,0.05 1.12,-0.73 -0.16,-1.02 -0.38,-0.71 -1.14,-1.26 -0.06,-1.61 -0.17,-3.1 -0.24,-4.88 -0.99,0.02 -1.2,0.32 -1.88,0.75 -0.89,0.56 -0.79,0.53 -0.71,1.86 0.52,0.29 1.94,0.63 0.98,1.54 -0.77,0.72 -1.33,-0.11 -2.31,-0.2 0.16,1.45 0.3,0.39 0.52,1.56 -0.47,0.34 -2.08,0.75 -2.74,0.68 -0.23,-0.07 -2.52,-2.54 -2.91,-0.05 1.89,0.98 1.59,-0.08 2.16,2.82 1.65,0.04 0.5,-0.7 2.38,-0.9 -0.01,2.37 -0.36,2.01 1.26,3.15 1.44,1.03 0.46,1.78 0.33,3.09 0.34,0.53 0.12,0.13 0.43,0.54 0.36,0.47 0.71,1.22 0.26,1.68 -0.38,0.31 0.1,0.19 -0.55,0.08 -0.47,-0.09 -1.79,-0.16 -2.08,-0.44 -0.54,-0.51 0.72,-1.53 0.79,-2.26 -1.19,-0.03 -0.82,0.38 -2.27,0.47 -0.97,0.07 -1.71,-0.09 -2.68,0.01 -0.03,1.07 -0.01,0.13 0.15,0.58 0.32,0.84 0.17,1.11 0.38,2.18 0.13,0.72 0.54,0.92 -0.39,1.18 -0.81,0.24 -0.62,-0.11 -1.25,-0.43 -3.13,1.06 -2.31,1.63 -3.45,2.59 -0.4,0.33 -1.41,0.69 -1.95,1.2 -0.33,0.32 -0.37,0.48 -0.71,0.76 -0.54,0.45 -0.35,0.06 -0.85,0.63 -0.52,0.99 0.22,1.48 -0.96,2.16 -2.97,1.74 -3.28,1.39 -3.4,5.42 -1.85,0.06 -0.92,-0.59 -1.46,-1.79l-2.12 -0.52c-0.78,1.21 -0.99,3.07 -1.55,4.54 -0.66,1.72 -0.17,1.13 0.08,2.2 0.21,0.89 -0.22,1.4 -0.41,2.25z"/>
   <path class="fil2" d="M707.54 44.84l-0.1 1.62c-1.19,-0.38 -0.25,-0.75 -2.07,-1.87 -1.59,-0.99 -1.06,-1.06 -1.95,-2.13 -1.42,0.07 -0.45,1 -3.23,0.85 -0.68,1.47 -1.52,1.2 -2.12,2.97 -0.42,1.27 -0.88,1.26 -1.92,1.68 -1.12,0.46 -0.43,-0.3 -0.85,0.65 0.19,0.26 0.53,1.03 2.01,0.18 0.43,-0.25 0.76,-0.8 1.51,-0.9l4.83 -0.35 0.29 2.65c0.97,0.55 1.68,0.24 2.46,0.9 0.89,0.73 0.91,0.94 2.57,0.96l0.37 -1.25c2.07,-0.41 4.13,1.65 7.7,0.93 0.95,-0.2 0.42,-0.23 0.91,-1.63 0.1,-0.3 0.23,-0.37 0.27,-0.87 0.06,-0.75 0.15,-1.02 -0.75,-1.09 -0.32,-0.03 -0.33,0 -0.62,-0.01 -0.87,-0.03 -0.42,-0.02 -1.01,-0.14 -1.75,-0.35 -2.16,0.67 -3.3,-1.78 -0.46,-0.98 -0.4,-1.39 -1.44,-0.84 -0.03,0.06 -0.05,0.08 -0.05,0.18 -0.04,1.16 0.17,1.52 -0.29,2.11 -0.94,-0.14 -0.49,0.06 -0.94,-0.64l-1.59 -3.04c-0.48,-0.48 -1.25,-0.71 -1.81,-1.3 -0.47,-0.49 -0.78,-1.27 -1.6,-1.26 -0.25,1.76 1.65,2.63 2.72,3.42z"/>
   <path class="fil5" d="M515.04 54.74c8.48,0 16.88,0 25.45,0l0.01 53.9c0,7.6 -0.49,14.46 -9.19,18.28 -8.79,3.86 -23,3.28 -32.5,0.29 -16.45,-5.18 -28.31,-14.98 -36.67,-29.89 -6.67,-11.89 -9.54,-27.15 -6.27,-40.44 2.3,-9.34 4.57,-16.25 11.01,-24.29 15.94,-19.9 38.01,-26.04 62,-23.71l-0.02 22.63c-2.8,0.58 -20.13,-2.14 -32.28,7.32 -11.07,8.63 -16.87,20.54 -15.9,34.23 0.69,9.82 7.75,22.11 16.38,26.88 3.5,1.94 12.31,6.13 16.19,5.79 2.12,-0.18 1.57,-0.97 1.68,-5.67 0.33,-14.77 0.11,-30.36 0.11,-45.32z"/>
   <path class="fil5" d="M622.86 30.73c-1.62,0 -3.01,-0.01 -4.4,0 -9.78,0.05 -19.55,0.12 -29.33,0.18 -0.43,0 -0.86,0.02 -1.29,0.01 -0.77,-0.02 -1.22,0.36 -1.35,1.1 -0.08,0.47 -0.15,0.96 -0.15,1.44 -0.01,5.8 -0.01,11.6 -0.01,17.41 0,0.37 0.03,0.75 0.08,1.12 0.11,0.8 0.54,1.26 1.39,1.26 0.7,0.01 1.4,0.03 2.09,0.03 9.89,0 19.78,-0.01 29.66,-0.01 0.37,0 0.74,0 1.29,0 0.08,0.63 0.2,1.19 0.21,1.75 0,6.51 0,13.01 -0.01,19.51 0,0.27 -0.01,0.54 -0.04,0.8 -0.08,0.63 -0.39,0.92 -1.07,0.92 -10.09,0.1 -20.18,0.21 -30.28,0.32 -0.59,0.01 -1.18,0.08 -1.77,0.06 -0.86,-0.03 -1.29,0.42 -1.42,1.21 -0.08,0.47 -0.14,0.96 -0.14,1.44 -0.01,7.63 -0.01,15.26 0,22.89 0.01,2.72 0.22,2.9 2.94,2.91 9.67,0.01 19.34,0.03 29.01,0.05 1.49,0 2.98,0 4.59,0 0.05,0.62 0.13,1.09 0.13,1.55 0.01,6.88 0.01,13.76 0.01,20.64 0,1.43 -0.14,1.58 -1.74,1.57 -5.53,-0.05 -11.06,-0.12 -16.6,-0.17 -8.43,-0.07 -16.87,-0.16 -25.3,-0.17 -2.47,-0.01 -4.81,-0.51 -7.06,-1.41 -3.34,-1.34 -5.58,-3.94 -7.42,-6.9 -2.26,-3.66 -3.17,-7.69 -3.15,-11.97 0.03,-7.04 0.01,-14.08 0.01,-21.12 0.01,-17.95 0.02,-35.89 -0.01,-53.84 -0.01,-3.01 0.07,-6.01 0.48,-9 0.69,-4.94 3.1,-8.85 6.98,-11.89 1.14,-0.89 2.35,-1.71 3.61,-2.4 1.02,-0.57 2.14,-0.99 3.26,-1.32 2.47,-0.73 4.94,-1.29 7.58,-1.27 12.57,0.07 25.14,0.02 37.72,0.02 1.56,-0.01 1.66,0.07 1.66,1.61 -0.01,6.61 -0.02,13.22 -0.04,19.83 0,0.52 -0.06,1.05 -0.12,1.84z"/>
   <path class="fil5" d="M254.51 80.78c-0.38,8 -0.14,15.99 -0.18,23.98 -0.04,7.94 -0.01,15.88 -0.01,23.94 -0.86,0.07 -1.49,0.15 -2.12,0.15 -6.98,0.02 -13.97,0.02 -20.95,0.03 -1.3,0 -1.45,-0.13 -1.46,-1.5 -0.02,-2.64 0,-5.27 0,-7.9 -0.01,-30.9 -0.01,-61.8 -0.03,-92.7 0,-0.94 0.44,-1.76 0.53,-2.61 0.21,-1.79 0.82,-3.43 1.4,-5.08 0.93,-2.62 2.57,-4.81 4.65,-6.65 2.74,-2.44 6.2,-3.16 9.59,-4.17 2.62,-0.77 5.2,-0.5 7.79,-0.53 5.64,-0.08 11.29,0.01 16.93,-0.05 1.66,-0.02 3.2,0.39 4.71,0.91 3.09,1.06 6.18,2.12 9.01,3.83 1.99,1.21 3.78,2.64 5.45,4.24 3.98,3.8 6.83,8.35 8.91,13.42 0.96,2.35 1.38,4.8 1.96,7.24 0.62,2.57 0.48,5.1 0.52,7.65 0.05,2.81 -0.62,5.53 -1.09,8.27 -0.55,3.23 -1.91,6.14 -3.45,8.96 -2.19,4.01 -5.14,7.44 -8.76,10.19 -2.37,1.81 -5.03,3.26 -7.94,4.15 -2.35,0.71 -4.66,1.59 -7.04,2.18 -5.13,1.26 -10.31,2.09 -15.63,1.79 -0.74,-0.04 -1.5,0.02 -2.25,0.05 -0.1,0 -0.2,0.07 -0.54,0.21zm5.76 -24.28l0 0c0,0.02 0,0.04 0,0.06 1.13,0 2.26,0.05 3.38,-0.01 2.43,-0.15 4.88,-0.41 6.95,-1.76 4.99,-3.24 6.71,-8.04 6.03,-13.58 -0.19,-1.56 -0.42,-3.31 -1.65,-4.61 -1.38,-1.46 -2.97,-2.71 -4.77,-3.51 -4.07,-1.81 -8.32,-2.75 -12.82,-2.29 -2.72,0.28 -3.06,0.57 -3.08,3.37 -0.01,3.6 -0.03,7.2 -0.01,10.79 0.01,3.28 0.05,6.55 0.13,9.83 0.03,1.25 0.42,1.64 1.65,1.7 1.39,0.06 2.79,0.01 4.19,0.01z"/>
   <path class="fil5" d="M0 7.83c23.58,0 47.03,0 70.45,0 0.38,1.18 0.51,20.56 0.15,22.74 -0.58,0.04 -1.2,0.13 -1.82,0.13 -5.91,0 -11.82,0 -17.73,0 -0.38,0 -0.75,-0.01 -1.13,0 -1.8,0.03 -2,0.25 -2,2.08 0,30.74 0,61.47 0.01,92.21 0,0.81 0.05,1.61 0.08,2.42 0.05,1.28 -0.05,1.42 -1.29,1.46 -0.92,0.03 -1.83,-0.01 -2.74,-0.01 -6.51,0 -13.01,0.01 -19.51,0.01 -0.43,0.01 -0.85,0 -1.35,0 -0.1,-0.35 -0.25,-0.64 -0.25,-0.94 0.01,-5.69 0.06,-11.39 0.06,-17.08 0.01,-26.06 0.01,-52.12 0.01,-78.18 0,-0.17 0,-0.33 0,-0.49 -0.05,-1.66 -0.32,-1.94 -2.01,-1.95 -6.18,-0.01 -12.36,0.01 -18.54,0 -0.78,0 -1.57,-0.07 -2.39,-0.11 0,-7.51 0,-14.84 0,-22.29z"/>
   <path class="fil6" d="M146.46 8.77c34.19,0 61.89,27.71 61.89,61.89 0,34.18 -27.7,61.89 -61.89,61.89 -34.17,0 -61.88,-27.71 -61.88,-61.89 0,-34.18 27.71,-61.89 61.88,-61.89zm0 23.66c21.12,0 38.23,17.12 38.23,38.23 0,21.11 -17.11,38.23 -38.23,38.23 -21.11,0 -38.22,-17.12 -38.22,-38.23 0,-21.11 17.11,-38.23 38.22,-38.23z"/>
   <path class="fil6" d="M378.98 8.58c34.18,0 61.89,27.71 61.89,61.89 0,34.18 -27.71,61.89 -61.89,61.89 -34.18,0 -61.89,-27.71 -61.89,-61.89 0,-34.18 27.71,-61.89 61.89,-61.89zm0 23.66c21.11,0 38.23,17.12 38.23,38.23 0,21.11 -17.12,38.23 -38.23,38.23 -21.11,0 -38.23,-17.12 -38.23,-38.23 0,-21.11 17.12,-38.23 38.23,-38.23z"/>
   <path class="fil7" d="M27.53 162.63l-2.76 0 -1.09 -3.91 -5.07 0 -1.06 3.91 -2.7 0 4.91 -17.16 2.7 0 5.07 17.16zm-4.68 -6.81l-1.76 -6.34 -1.71 6.34 3.47 0zm5.37 1.25l2.5 -0.34c0.15,1.13 0.45,1.96 0.9,2.49 0.46,0.53 1.07,0.8 1.85,0.8 0.82,0 1.44,-0.24 1.85,-0.71 0.42,-0.47 0.63,-1.02 0.63,-1.65 0,-0.41 -0.09,-0.75 -0.27,-1.04 -0.17,-0.28 -0.48,-0.53 -0.91,-0.74 -0.3,-0.14 -0.98,-0.39 -2.04,-0.75 -1.36,-0.46 -2.32,-1.03 -2.87,-1.71 -0.77,-0.94 -1.16,-2.1 -1.16,-3.46 0,-0.87 0.18,-1.69 0.55,-2.46 0.36,-0.76 0.89,-1.34 1.57,-1.74 0.69,-0.4 1.51,-0.6 2.48,-0.6 1.58,0 2.78,0.48 3.57,1.43 0.81,0.96 1.22,2.23 1.27,3.82l-2.57 0.12c-0.11,-0.89 -0.34,-1.52 -0.69,-1.91 -0.36,-0.39 -0.9,-0.58 -1.61,-0.58 -0.74,0 -1.31,0.21 -1.73,0.62 -0.27,0.27 -0.4,0.62 -0.4,1.07 0,0.41 0.13,0.76 0.38,1.04 0.32,0.37 1.1,0.76 2.34,1.16 1.24,0.39 2.15,0.81 2.75,1.23 0.59,0.43 1.06,1.01 1.39,1.75 0.34,0.73 0.51,1.65 0.51,2.73 0,0.98 -0.2,1.9 -0.61,2.76 -0.4,0.86 -0.97,1.5 -1.71,1.91 -0.73,0.42 -1.65,0.63 -2.75,0.63 -1.6,0 -2.83,-0.5 -3.68,-1.5 -0.86,-1 -1.37,-2.46 -1.54,-4.37zm11.79 0l2.49 -0.34c0.15,1.13 0.45,1.96 0.91,2.49 0.45,0.53 1.07,0.8 1.84,0.8 0.82,0 1.44,-0.24 1.85,-0.71 0.42,-0.47 0.63,-1.02 0.63,-1.65 0,-0.41 -0.09,-0.75 -0.26,-1.04 -0.18,-0.28 -0.48,-0.53 -0.92,-0.74 -0.3,-0.14 -0.97,-0.39 -2.03,-0.75 -1.37,-0.46 -2.32,-1.03 -2.87,-1.71 -0.78,-0.94 -1.16,-2.1 -1.16,-3.46 0,-0.87 0.18,-1.69 0.54,-2.46 0.36,-0.76 0.89,-1.34 1.58,-1.74 0.68,-0.4 1.51,-0.6 2.48,-0.6 1.58,0 2.77,0.48 3.57,1.43 0.8,0.96 1.22,2.23 1.26,3.82l-2.56 0.12c-0.11,-0.89 -0.34,-1.52 -0.7,-1.91 -0.36,-0.39 -0.89,-0.58 -1.6,-0.58 -0.74,0 -1.32,0.21 -1.73,0.62 -0.27,0.27 -0.41,0.62 -0.41,1.07 0,0.41 0.13,0.76 0.38,1.04 0.32,0.37 1.11,0.76 2.34,1.16 1.24,0.39 2.16,0.81 2.75,1.23 0.6,0.43 1.06,1.01 1.4,1.75 0.33,0.73 0.5,1.65 0.5,2.73 0,0.98 -0.2,1.9 -0.6,2.76 -0.41,0.86 -0.97,1.5 -1.71,1.91 -0.74,0.42 -1.66,0.63 -2.75,0.63 -1.6,0 -2.83,-0.5 -3.69,-1.5 -0.86,-1 -1.36,-2.46 -1.53,-4.37zm12.45 5.56l0 -17.16 9.37 0 0 2.9 -6.8 0 0 3.81 6.32 0 0 2.9 -6.32 0 0 4.65 7.05 0 0 2.9 -9.62 0zm11.12 -5.56l2.49 -0.34c0.15,1.13 0.45,1.96 0.91,2.49 0.45,0.53 1.07,0.8 1.84,0.8 0.82,0 1.44,-0.24 1.85,-0.71 0.42,-0.47 0.63,-1.02 0.63,-1.65 0,-0.41 -0.09,-0.75 -0.26,-1.04 -0.18,-0.28 -0.48,-0.53 -0.92,-0.74 -0.3,-0.14 -0.97,-0.39 -2.03,-0.75 -1.37,-0.46 -2.32,-1.03 -2.87,-1.71 -0.78,-0.94 -1.16,-2.1 -1.16,-3.46 0,-0.87 0.18,-1.69 0.54,-2.46 0.37,-0.76 0.89,-1.34 1.57,-1.74 0.69,-0.4 1.52,-0.6 2.49,-0.6 1.58,0 2.77,0.48 3.57,1.43 0.8,0.96 1.22,2.23 1.26,3.82l-2.56 0.12c-0.11,-0.89 -0.34,-1.52 -0.7,-1.91 -0.36,-0.39 -0.89,-0.58 -1.6,-0.58 -0.74,0 -1.32,0.21 -1.73,0.62 -0.27,0.27 -0.41,0.62 -0.41,1.07 0,0.41 0.13,0.76 0.38,1.04 0.32,0.37 1.1,0.76 2.34,1.16 1.24,0.39 2.16,0.81 2.75,1.23 0.6,0.43 1.06,1.01 1.4,1.75 0.33,0.73 0.5,1.65 0.5,2.73 0,0.98 -0.2,1.9 -0.6,2.76 -0.41,0.86 -0.98,1.5 -1.71,1.91 -0.74,0.42 -1.66,0.63 -2.75,0.63 -1.6,0 -2.83,-0.5 -3.69,-1.5 -0.85,-1 -1.36,-2.46 -1.53,-4.37zm11.78 0l2.49 -0.34c0.15,1.13 0.45,1.96 0.91,2.49 0.46,0.53 1.07,0.8 1.85,0.8 0.82,0 1.43,-0.24 1.85,-0.71 0.42,-0.47 0.62,-1.02 0.62,-1.65 0,-0.41 -0.08,-0.75 -0.26,-1.04 -0.17,-0.28 -0.48,-0.53 -0.91,-0.74 -0.3,-0.14 -0.98,-0.39 -2.04,-0.75 -1.36,-0.46 -2.32,-1.03 -2.87,-1.71 -0.78,-0.94 -1.16,-2.1 -1.16,-3.46 0,-0.87 0.18,-1.69 0.54,-2.46 0.37,-0.76 0.89,-1.34 1.58,-1.74 0.69,-0.4 1.51,-0.6 2.48,-0.6 1.58,0 2.78,0.48 3.57,1.43 0.8,0.96 1.22,2.23 1.26,3.82l-2.56 0.12c-0.11,-0.89 -0.34,-1.52 -0.7,-1.91 -0.35,-0.39 -0.89,-0.58 -1.6,-0.58 -0.74,0 -1.31,0.21 -1.73,0.62 -0.27,0.27 -0.4,0.62 -0.4,1.07 0,0.41 0.12,0.76 0.38,1.04 0.32,0.37 1.1,0.76 2.34,1.16 1.24,0.39 2.15,0.81 2.75,1.23 0.59,0.43 1.06,1.01 1.39,1.75 0.34,0.73 0.51,1.65 0.51,2.73 0,0.98 -0.2,1.9 -0.61,2.76 -0.4,0.86 -0.97,1.5 -1.71,1.91 -0.73,0.42 -1.65,0.63 -2.75,0.63 -1.6,0 -2.83,-0.5 -3.68,-1.5 -0.86,-1 -1.37,-2.46 -1.54,-4.37zm11.93 -2.92c0,-1.74 0.19,-3.21 0.58,-4.4 0.28,-0.88 0.68,-1.66 1.18,-2.36 0.49,-0.69 1.04,-1.21 1.63,-1.55 0.79,-0.45 1.7,-0.68 2.73,-0.68 1.87,0 3.36,0.79 4.48,2.36 1.12,1.57 1.68,3.76 1.68,6.56 0,2.77 -0.56,4.94 -1.67,6.51 -1.11,1.57 -2.6,2.35 -4.45,2.35 -1.89,0 -3.38,-0.78 -4.49,-2.34 -1.11,-1.56 -1.67,-3.71 -1.67,-6.45zm2.63 -0.11c0,1.94 0.33,3.42 1,4.42 0.66,1.01 1.5,1.51 2.52,1.51 1.02,0 1.86,-0.5 2.52,-1.49 0.65,-1 0.97,-2.5 0.97,-4.49 0,-1.97 -0.31,-3.44 -0.95,-4.4 -0.64,-0.97 -1.48,-1.46 -2.54,-1.46 -1.05,0 -1.91,0.49 -2.55,1.47 -0.65,0.99 -0.97,2.46 -0.97,4.44zm11.64 8.59l0 -17.16 5.38 0c1.35,0 2.34,0.16 2.95,0.47 0.61,0.31 1.1,0.85 1.47,1.64 0.37,0.79 0.55,1.69 0.55,2.7 0,1.29 -0.27,2.35 -0.83,3.19 -0.55,0.84 -1.38,1.37 -2.49,1.59 0.55,0.43 1,0.91 1.36,1.44 0.36,0.52 0.84,1.45 1.45,2.78l1.54 3.35 -3.05 0 -1.83 -3.75c-0.66,-1.33 -1.11,-2.17 -1.36,-2.51 -0.24,-0.35 -0.49,-0.59 -0.77,-0.71 -0.27,-0.13 -0.7,-0.2 -1.29,-0.2l-0.52 0 0 7.17 -2.56 0zm2.56 -9.9l1.89 0c1.23,0 1.99,-0.07 2.3,-0.21 0.3,-0.14 0.54,-0.38 0.71,-0.72 0.18,-0.35 0.26,-0.78 0.26,-1.29 0,-0.58 -0.11,-1.05 -0.34,-1.41 -0.23,-0.35 -0.55,-0.57 -0.96,-0.67 -0.21,-0.04 -0.83,-0.06 -1.86,-0.06l-2 0 0 4.36zm10.11 9.9l0 -17.16 2.56 0 0 17.16 -2.56 0zm16.4 0l-2.76 0 -1.1 -3.91 -5.07 0 -1.05 3.91 -2.71 0 4.91 -17.16 2.71 0 5.07 17.16zm-4.69 -6.81l-1.75 -6.34 -1.71 6.34 3.46 0zm5.96 3.53l2.42 0 0 2.35c0,0.95 -0.06,1.7 -0.18,2.25 -0.12,0.55 -0.35,1.05 -0.68,1.48 -0.34,0.44 -0.77,0.78 -1.28,1.03l-0.47 -1.36c0.48,-0.22 0.83,-0.52 1.03,-0.91 0.21,-0.38 0.32,-0.9 0.33,-1.56l-1.17 0 0 -3.28zm9.91 3.28l0 -17.16 9.36 0 0 2.9 -6.8 0 0 3.81 6.32 0 0 2.9 -6.32 0 0 4.65 7.05 0 0 2.9 -9.61 0zm11.78 0l0 -17.16 2.48 0 5.21 11.5 0 -11.5 2.36 0 0 17.16 -2.55 0 -5.13 -11.28 0 11.28 -2.37 0zm18.64 -6.3l0 -2.9 5.5 0 0 6.84c-0.53,0.71 -1.31,1.33 -2.32,1.87 -1.02,0.53 -2.04,0.8 -3.09,0.8 -1.32,0 -2.47,-0.38 -3.45,-1.13 -0.98,-0.75 -1.72,-1.84 -2.22,-3.24 -0.49,-1.4 -0.74,-2.93 -0.74,-4.58 0,-1.79 0.28,-3.38 0.83,-4.77 0.55,-1.39 1.36,-2.46 2.42,-3.2 0.81,-0.57 1.82,-0.86 3.03,-0.86 1.57,0 2.8,0.45 3.68,1.35 0.88,0.89 1.45,2.13 1.7,3.71l-2.54 0.64c-0.18,-0.84 -0.52,-1.5 -1.01,-2 -0.49,-0.48 -1.1,-0.73 -1.83,-0.73 -1.12,0 -2,0.48 -2.66,1.45 -0.66,0.96 -0.99,2.38 -0.99,4.27 0,2.04 0.33,3.57 1,4.59 0.67,1.02 1.54,1.53 2.62,1.53 0.53,0 1.07,-0.14 1.61,-0.43 0.53,-0.28 0.99,-0.63 1.38,-1.04l0 -2.17 -2.92 0zm7.86 6.3l0 -17.16 9.37 0 0 2.9 -6.8 0 0 3.81 6.32 0 0 2.9 -6.32 0 0 4.65 7.05 0 0 2.9 -9.62 0zm11.79 0l0 -17.16 2.48 0 5.21 11.5 0 -11.5 2.36 0 0 17.16 -2.56 0 -5.12 -11.28 0 11.28 -2.37 0zm12.76 0l0 -17.16 2.56 0 0 6.76 4.98 0 0 -6.76 2.57 0 0 17.16 -2.57 0 0 -7.5 -4.98 0 0 7.5 -2.56 0zm24.15 0l-2.75 0 -1.1 -3.91 -5.07 0 -1.05 3.91 -2.71 0 4.91 -17.16 2.71 0 5.06 17.16zm-4.68 -6.81l-1.76 -6.34 -1.7 6.34 3.46 0zm6.05 6.81l0 -17.16 5.38 0c1.35,0 2.33,0.16 2.95,0.47 0.61,0.31 1.1,0.85 1.47,1.64 0.37,0.79 0.55,1.69 0.55,2.7 0,1.29 -0.28,2.35 -0.83,3.19 -0.56,0.84 -1.39,1.37 -2.5,1.59 0.56,0.43 1.01,0.91 1.36,1.44 0.36,0.52 0.85,1.45 1.45,2.78l1.55 3.35 -3.06 0 -1.83 -3.75c-0.66,-1.33 -1.11,-2.17 -1.35,-2.51 -0.24,-0.35 -0.5,-0.59 -0.77,-0.71 -0.27,-0.13 -0.7,-0.2 -1.29,-0.2l-0.52 0 0 7.17 -2.56 0zm2.56 -9.9l1.89 0c1.23,0 1.99,-0.07 2.29,-0.21 0.31,-0.14 0.55,-0.38 0.72,-0.72 0.17,-0.35 0.26,-0.78 0.26,-1.29 0,-0.58 -0.12,-1.05 -0.34,-1.41 -0.23,-0.35 -0.55,-0.57 -0.96,-0.67 -0.21,-0.04 -0.83,-0.06 -1.87,-0.06l-1.99 0 0 4.36zm10.11 9.9l0 -17.16 2.56 0 0 17.16 -2.56 0zm16.39 0l-2.76 0 -1.09 -3.91 -5.07 0 -1.05 3.91 -2.71 0 4.91 -17.16 2.7 0 5.07 17.16zm-4.68 -6.81l-1.76 -6.34 -1.71 6.34 3.47 0zm5.96 3.53l2.42 0 0 2.35c0,0.95 -0.06,1.7 -0.18,2.25 -0.12,0.55 -0.35,1.05 -0.69,1.48 -0.33,0.44 -0.76,0.78 -1.28,1.03l-0.47 -1.36c0.49,-0.22 0.83,-0.52 1.04,-0.91 0.2,-0.38 0.31,-0.9 0.32,-1.56l-1.16 0 0 -3.28zm18 -3.05l2.47 1.03c-0.38,1.89 -1.01,3.29 -1.9,4.21 -0.88,0.92 -2,1.38 -3.36,1.38 -1.68,0 -3.06,-0.78 -4.14,-2.34 -1.08,-1.56 -1.63,-3.69 -1.63,-6.39 0,-2.85 0.55,-5.07 1.63,-6.65 1.09,-1.59 2.52,-2.38 4.3,-2.38 1.54,0 2.8,0.63 3.77,1.87 0.58,0.73 1,1.79 1.29,3.16l-2.52 0.82c-0.15,-0.89 -0.46,-1.59 -0.94,-2.11 -0.48,-0.51 -1.05,-0.77 -1.73,-0.77 -0.94,0 -1.7,0.46 -2.29,1.37 -0.58,0.91 -0.87,2.39 -0.87,4.44 0,2.16 0.29,3.7 0.86,4.62 0.58,0.93 1.32,1.38 2.25,1.38 0.68,0 1.26,-0.29 1.75,-0.87 0.49,-0.59 0.84,-1.51 1.06,-2.77zm16.06 6.33l-2.76 0 -1.09 -3.91 -5.08 0 -1.05 3.91 -2.71 0 4.92 -17.16 2.7 0 5.07 17.16zm-4.68 -6.81l-1.76 -6.34 -1.71 6.34 3.47 0zm6.04 6.81l0 -17.16 5.38 0c1.35,0 2.34,0.16 2.95,0.47 0.62,0.31 1.1,0.85 1.47,1.64 0.37,0.79 0.56,1.69 0.56,2.7 0,1.29 -0.28,2.35 -0.84,3.19 -0.55,0.84 -1.38,1.37 -2.49,1.59 0.55,0.43 1,0.91 1.36,1.44 0.36,0.52 0.84,1.45 1.45,2.78l1.54 3.35 -3.05 0 -1.83 -3.75c-0.66,-1.33 -1.11,-2.17 -1.36,-2.51 -0.24,-0.35 -0.49,-0.59 -0.77,-0.71 -0.27,-0.13 -0.7,-0.2 -1.29,-0.2l-0.52 0 0 7.17 -2.56 0zm2.56 -9.9l1.9 0c1.22,0 1.98,-0.07 2.29,-0.21 0.3,-0.14 0.54,-0.38 0.71,-0.72 0.18,-0.35 0.26,-0.78 0.26,-1.29 0,-0.58 -0.11,-1.05 -0.34,-1.41 -0.23,-0.35 -0.55,-0.57 -0.96,-0.67 -0.21,-0.04 -0.83,-0.06 -1.86,-0.06l-2 0 0 4.36zm13.05 9.9l0 -14.26 -3.75 0 0 -2.9 10.04 0 0 2.9 -3.73 0 0 14.26 -2.56 0zm7.1 -8.48c0,-1.74 0.19,-3.21 0.58,-4.4 0.28,-0.88 0.68,-1.66 1.17,-2.36 0.5,-0.69 1.05,-1.21 1.64,-1.55 0.79,-0.45 1.7,-0.68 2.73,-0.68 1.87,0 3.35,0.79 4.48,2.36 1.12,1.57 1.68,3.76 1.68,6.56 0,2.77 -0.56,4.94 -1.67,6.51 -1.11,1.57 -2.6,2.35 -4.46,2.35 -1.88,0 -3.38,-0.78 -4.49,-2.34 -1.11,-1.56 -1.66,-3.71 -1.66,-6.45zm2.63 -0.11c0,1.94 0.33,3.42 0.99,4.42 0.67,1.01 1.51,1.51 2.53,1.51 1.02,0 1.86,-0.5 2.51,-1.49 0.66,-1 0.98,-2.5 0.98,-4.49 0,-1.97 -0.32,-3.44 -0.95,-4.4 -0.64,-0.97 -1.48,-1.46 -2.54,-1.46 -1.06,0 -1.91,0.49 -2.55,1.47 -0.65,0.99 -0.97,2.46 -0.97,4.44zm17.52 2.29l0 -2.9 5.5 0 0 6.84c-0.54,0.71 -1.31,1.33 -2.33,1.87 -1.01,0.53 -2.04,0.8 -3.08,0.8 -1.32,0 -2.47,-0.38 -3.46,-1.13 -0.98,-0.75 -1.72,-1.84 -2.21,-3.24 -0.49,-1.4 -0.74,-2.93 -0.74,-4.58 0,-1.79 0.27,-3.38 0.83,-4.77 0.55,-1.39 1.36,-2.46 2.42,-3.2 0.81,-0.57 1.82,-0.86 3.03,-0.86 1.57,0 2.79,0.45 3.68,1.35 0.88,0.89 1.45,2.13 1.7,3.71l-2.55 0.64c-0.17,-0.84 -0.51,-1.5 -1,-2 -0.49,-0.48 -1.1,-0.73 -1.84,-0.73 -1.11,0 -2,0.48 -2.65,1.45 -0.66,0.96 -0.99,2.38 -0.99,4.27 0,2.04 0.33,3.57 1,4.59 0.67,1.02 1.54,1.53 2.62,1.53 0.53,0 1.07,-0.14 1.6,-0.43 0.54,-0.28 1,-0.63 1.39,-1.04l0 -2.17 -2.92 0zm7.86 6.3l0 -17.16 5.38 0c1.35,0 2.34,0.16 2.95,0.47 0.62,0.31 1.1,0.85 1.47,1.64 0.37,0.79 0.56,1.69 0.56,2.7 0,1.29 -0.28,2.35 -0.84,3.19 -0.55,0.84 -1.38,1.37 -2.49,1.59 0.55,0.43 1,0.91 1.36,1.44 0.36,0.52 0.84,1.45 1.45,2.78l1.54 3.35 -3.05 0 -1.83 -3.75c-0.66,-1.33 -1.11,-2.17 -1.36,-2.51 -0.24,-0.35 -0.49,-0.59 -0.76,-0.71 -0.28,-0.13 -0.71,-0.2 -1.3,-0.2l-0.52 0 0 7.17 -2.56 0zm2.56 -9.9l1.89 0c1.23,0 1.99,-0.07 2.3,-0.21 0.3,-0.14 0.54,-0.38 0.71,-0.72 0.18,-0.35 0.26,-0.78 0.26,-1.29 0,-0.58 -0.11,-1.05 -0.34,-1.41 -0.22,-0.35 -0.55,-0.57 -0.96,-0.67 -0.21,-0.04 -0.83,-0.06 -1.86,-0.06l-2 0 0 4.36zm21.6 9.9l-2.76 0 -1.09 -3.91 -5.08 0 -1.05 3.91 -2.71 0 4.91 -17.16 2.71 0 5.07 17.16zm-4.68 -6.81l-1.76 -6.34 -1.71 6.34 3.47 0zm6.04 6.81l0 -17.16 8.69 0 0 2.9 -6.13 0 0 4.08 5.3 0 0 2.9 -5.3 0 0 7.28 -2.56 0zm10.71 0l0 -17.16 2.56 0 0 17.16 -2.56 0zm16.39 0l-2.76 0 -1.09 -3.91 -5.08 0 -1.05 3.91 -2.71 0 4.91 -17.16 2.71 0 5.07 17.16zm-4.68 -6.81l-1.76 -6.34 -1.71 6.34 3.47 0zm5.95 3.53l2.42 0 0 2.35c0,0.95 -0.05,1.7 -0.17,2.25 -0.13,0.55 -0.36,1.05 -0.69,1.48 -0.34,0.44 -0.76,0.78 -1.28,1.03l-0.47 -1.36c0.49,-0.22 0.83,-0.52 1.04,-0.91 0.2,-0.38 0.31,-0.9 0.32,-1.56l-1.17 0 0 -3.28zm12.75 3.28l0 -14.26 -3.74 0 0 -2.9 10.03 0 0 2.9 -3.72 0 0 14.26 -2.57 0zm7.1 -8.48c0,-1.74 0.2,-3.21 0.58,-4.4 0.29,-0.88 0.68,-1.66 1.18,-2.36 0.5,-0.69 1.04,-1.21 1.64,-1.55 0.79,-0.45 1.7,-0.68 2.73,-0.68 1.86,0 3.35,0.79 4.47,2.36 1.12,1.57 1.68,3.76 1.68,6.56 0,2.77 -0.55,4.94 -1.66,6.51 -1.11,1.57 -2.6,2.35 -4.46,2.35 -1.88,0 -3.38,-0.78 -4.49,-2.34 -1.11,-1.56 -1.67,-3.71 -1.67,-6.45zm2.64 -0.11c0,1.94 0.33,3.42 0.99,4.42 0.66,1.01 1.51,1.51 2.53,1.51 1.02,0 1.85,-0.5 2.51,-1.49 0.65,-1 0.98,-2.5 0.98,-4.49 0,-1.97 -0.32,-3.44 -0.96,-4.4 -0.63,-0.97 -1.48,-1.46 -2.53,-1.46 -1.06,0 -1.91,0.49 -2.55,1.47 -0.65,0.99 -0.97,2.46 -0.97,4.44zm11.64 8.59l0 -17.16 4.09 0c1.55,0 2.56,0.09 3.04,0.26 0.72,0.26 1.33,0.82 1.82,1.68 0.48,0.86 0.73,1.98 0.73,3.34 0,1.06 -0.14,1.94 -0.42,2.66 -0.28,0.72 -0.64,1.28 -1.07,1.69 -0.44,0.41 -0.88,0.68 -1.33,0.81 -0.61,0.17 -1.49,0.25 -2.64,0.25l-1.66 0 0 6.47 -2.56 0zm2.56 -14.26l0 4.89 1.39 0c1.01,0 1.67,-0.09 2.01,-0.27 0.34,-0.18 0.61,-0.46 0.8,-0.85 0.19,-0.38 0.29,-0.82 0.29,-1.33 0,-0.63 -0.14,-1.15 -0.41,-1.55 -0.27,-0.41 -0.61,-0.67 -1.02,-0.77 -0.31,-0.08 -0.91,-0.12 -1.83,-0.12l-1.23 0zm8.69 5.78c0,-1.74 0.2,-3.21 0.58,-4.4 0.29,-0.88 0.68,-1.66 1.18,-2.36 0.5,-0.69 1.04,-1.21 1.63,-1.55 0.79,-0.45 1.7,-0.68 2.73,-0.68 1.87,0 3.36,0.79 4.48,2.36 1.12,1.57 1.68,3.76 1.68,6.56 0,2.77 -0.56,4.94 -1.67,6.51 -1.11,1.57 -2.59,2.35 -4.45,2.35 -1.88,0 -3.38,-0.78 -4.49,-2.34 -1.11,-1.56 -1.67,-3.71 -1.67,-6.45zm2.63 -0.11c0,1.94 0.34,3.42 1,4.42 0.66,1.01 1.5,1.51 2.52,1.51 1.02,0 1.86,-0.5 2.52,-1.49 0.65,-1 0.98,-2.5 0.98,-4.49 0,-1.97 -0.32,-3.44 -0.96,-4.4 -0.63,-0.97 -1.48,-1.46 -2.54,-1.46 -1.05,0 -1.9,0.49 -2.55,1.47 -0.64,0.99 -0.97,2.46 -0.97,4.44zm17.53 2.29l0 -2.9 5.49 0 0 6.84c-0.53,0.71 -1.3,1.33 -2.32,1.87 -1.01,0.53 -2.04,0.8 -3.08,0.8 -1.32,0 -2.48,-0.38 -3.46,-1.13 -0.98,-0.75 -1.72,-1.84 -2.21,-3.24 -0.5,-1.4 -0.75,-2.93 -0.75,-4.58 0,-1.79 0.28,-3.38 0.83,-4.77 0.55,-1.39 1.36,-2.46 2.42,-3.2 0.82,-0.57 1.82,-0.86 3.03,-0.86 1.57,0 2.8,0.45 3.68,1.35 0.88,0.89 1.45,2.13 1.7,3.71l-2.54 0.64c-0.18,-0.84 -0.51,-1.5 -1,-2 -0.49,-0.48 -1.11,-0.73 -1.84,-0.73 -1.12,0 -2,0.48 -2.66,1.45 -0.65,0.96 -0.98,2.38 -0.98,4.27 0,2.04 0.33,3.57 0.99,4.59 0.67,1.02 1.54,1.53 2.63,1.53 0.53,0 1.06,-0.14 1.6,-0.43 0.54,-0.28 1,-0.63 1.38,-1.04l0 -2.17 -2.91 0zm7.86 6.3l0 -17.16 5.38 0c1.35,0 2.33,0.16 2.95,0.47 0.61,0.31 1.1,0.85 1.47,1.64 0.37,0.79 0.55,1.69 0.55,2.7 0,1.29 -0.28,2.35 -0.83,3.19 -0.56,0.84 -1.39,1.37 -2.5,1.59 0.55,0.43 1.01,0.91 1.36,1.44 0.36,0.52 0.85,1.45 1.45,2.78l1.55 3.35 -3.06 0 -1.83 -3.75c-0.66,-1.33 -1.11,-2.17 -1.35,-2.51 -0.24,-0.35 -0.5,-0.59 -0.77,-0.71 -0.27,-0.13 -0.7,-0.2 -1.29,-0.2l-0.52 0 0 7.17 -2.56 0zm2.56 -9.9l1.89 0c1.22,0 1.99,-0.07 2.29,-0.21 0.31,-0.14 0.55,-0.38 0.72,-0.72 0.17,-0.35 0.26,-0.78 0.26,-1.29 0,-0.58 -0.12,-1.05 -0.34,-1.41 -0.23,-0.35 -0.55,-0.57 -0.96,-0.67 -0.21,-0.04 -0.83,-0.06 -1.87,-0.06l-1.99 0 0 4.36zm21.59 9.9l-2.76 0 -1.09 -3.91 -5.07 0 -1.05 3.91 -2.71 0 4.91 -17.16 2.71 0 5.06 17.16zm-4.68 -6.81l-1.76 -6.34 -1.7 6.34 3.46 0zm6.05 6.81l0 -17.16 8.69 0 0 2.9 -6.13 0 0 4.08 5.3 0 0 2.9 -5.3 0 0 7.28 -2.56 0zm10.7 0l0 -17.16 2.56 0 0 17.16 -2.56 0zm16.39 0l-2.76 0 -1.09 -3.91 -5.07 0 -1.05 3.91 -2.71 0 4.91 -17.16 2.71 0 5.06 17.16zm-4.68 -6.81l-1.76 -6.34 -1.7 6.34 3.46 0zm10.3 6.81l0 -17.16 9.36 0 0 2.9 -6.8 0 0 3.81 6.33 0 0 2.9 -6.33 0 0 4.65 7.05 0 0 2.9 -9.61 0zm22.58 -6.3l0 -2.9 5.49 0 0 6.84c-0.53,0.71 -1.31,1.33 -2.32,1.87 -1.01,0.53 -2.04,0.8 -3.08,0.8 -1.33,0 -2.48,-0.38 -3.46,-1.13 -0.98,-0.75 -1.72,-1.84 -2.22,-3.24 -0.49,-1.4 -0.74,-2.93 -0.74,-4.58 0,-1.79 0.28,-3.38 0.83,-4.77 0.55,-1.39 1.36,-2.46 2.42,-3.2 0.81,-0.57 1.82,-0.86 3.03,-0.86 1.57,0 2.8,0.45 3.68,1.35 0.88,0.89 1.45,2.13 1.7,3.71l-2.54 0.64c-0.18,-0.84 -0.51,-1.5 -1.01,-2 -0.48,-0.48 -1.1,-0.73 -1.83,-0.73 -1.12,0 -2,0.48 -2.66,1.45 -0.66,0.96 -0.99,2.38 -0.99,4.27 0,2.04 0.34,3.57 1,4.59 0.67,1.02 1.54,1.53 2.62,1.53 0.54,0 1.07,-0.14 1.61,-0.43 0.54,-0.28 1,-0.63 1.38,-1.04l0 -2.17 -2.91 0zm7.86 6.3l0 -17.16 9.36 0 0 2.9 -6.8 0 0 3.81 6.32 0 0 2.9 -6.32 0 0 4.65 7.05 0 0 2.9 -9.61 0zm11.25 -8.48c0,-1.74 0.2,-3.21 0.58,-4.4 0.29,-0.88 0.68,-1.66 1.18,-2.36 0.5,-0.69 1.04,-1.21 1.63,-1.55 0.79,-0.45 1.7,-0.68 2.73,-0.68 1.87,0 3.36,0.79 4.48,2.36 1.12,1.57 1.68,3.76 1.68,6.56 0,2.77 -0.56,4.94 -1.67,6.51 -1.11,1.57 -2.59,2.35 -4.45,2.35 -1.88,0 -3.38,-0.78 -4.49,-2.34 -1.11,-1.56 -1.67,-3.71 -1.67,-6.45zm2.63 -0.11c0,1.94 0.34,3.42 1,4.42 0.66,1.01 1.5,1.51 2.52,1.51 1.02,0 1.86,-0.5 2.52,-1.49 0.65,-1 0.98,-2.5 0.98,-4.49 0,-1.97 -0.32,-3.44 -0.96,-4.4 -0.64,-0.97 -1.48,-1.46 -2.54,-1.46 -1.05,0 -1.9,0.49 -2.55,1.47 -0.64,0.99 -0.97,2.46 -0.97,4.44zm11.64 -8.57l4.66 0c1.05,0 1.86,0.11 2.41,0.33 0.73,0.3 1.37,0.82 1.9,1.58 0.53,0.76 0.93,1.68 1.21,2.78 0.27,1.1 0.41,2.45 0.41,4.05 0,1.42 -0.13,2.63 -0.39,3.65 -0.32,1.25 -0.77,2.26 -1.35,3.04 -0.44,0.58 -1.04,1.04 -1.79,1.36 -0.57,0.25 -1.32,0.37 -2.26,0.37l-4.8 0 0 -17.16zm2.57 2.9l0 11.36 1.9 0c0.71,0 1.22,-0.06 1.53,-0.16 0.42,-0.14 0.76,-0.38 1.03,-0.72 0.27,-0.33 0.5,-0.89 0.67,-1.65 0.17,-0.77 0.26,-1.82 0.26,-3.14 0,-1.33 -0.09,-2.34 -0.26,-3.05 -0.17,-0.72 -0.42,-1.27 -0.73,-1.67 -0.3,-0.39 -0.7,-0.66 -1.17,-0.8 -0.36,-0.11 -1.06,-0.17 -2.09,-0.17l-1.14 0zm10.19 14.26l0 -17.16 9.37 0 0 2.9 -6.81 0 0 3.81 6.33 0 0 2.9 -6.33 0 0 4.65 7.06 0 0 2.9 -9.62 0zm3.48 -18.71l1.21 -3.5 2.7 0 -2.39 3.5 -1.52 0zm7.64 13.15l2.49 -0.34c0.15,1.13 0.45,1.96 0.9,2.49 0.46,0.53 1.08,0.8 1.85,0.8 0.82,0 1.44,-0.24 1.85,-0.71 0.42,-0.47 0.63,-1.02 0.63,-1.65 0,-0.41 -0.09,-0.75 -0.26,-1.04 -0.18,-0.28 -0.48,-0.53 -0.92,-0.74 -0.3,-0.14 -0.97,-0.39 -2.03,-0.75 -1.37,-0.46 -2.32,-1.03 -2.88,-1.71 -0.77,-0.94 -1.16,-2.1 -1.16,-3.46 0,-0.87 0.19,-1.69 0.55,-2.46 0.36,-0.76 0.89,-1.34 1.57,-1.74 0.69,-0.4 1.51,-0.6 2.49,-0.6 1.58,0 2.77,0.48 3.57,1.43 0.8,0.96 1.22,2.23 1.26,3.82l-2.56 0.12c-0.11,-0.89 -0.34,-1.52 -0.7,-1.91 -0.36,-0.39 -0.89,-0.58 -1.61,-0.58 -0.73,0 -1.31,0.21 -1.72,0.62 -0.27,0.27 -0.41,0.62 -0.41,1.07 0,0.41 0.13,0.76 0.38,1.04 0.32,0.37 1.1,0.76 2.34,1.16 1.24,0.39 2.16,0.81 2.75,1.23 0.6,0.43 1.06,1.01 1.4,1.75 0.33,0.73 0.5,1.65 0.5,2.73 0,0.98 -0.2,1.9 -0.6,2.76 -0.41,0.86 -0.98,1.5 -1.71,1.91 -0.74,0.42 -1.66,0.63 -2.75,0.63 -1.6,0 -2.83,-0.5 -3.69,-1.5 -0.86,-1 -1.37,-2.46 -1.53,-4.37zm12.37 5.56l0 -17.16 2.56 0 0 17.16 -2.56 0zm16.39 0l-2.76 0 -1.09 -3.91 -5.08 0 -1.05 3.91 -2.71 0 4.91 -17.16 2.71 0 5.07 17.16zm-4.68 -6.81l-1.76 -6.34 -1.71 6.34 3.47 0z"/>
  </g>
 </g>
</svg>
